# xmcd
#
# Track frame offsets:
#  150
#  10864
#  23376
#  34490
#  47304
#  56258
#  70814
#  80330
#  90396
#  103760
#  112415
#  124721
#  136902
#  150927
#  161118
#  174036
#  184677
#  196860
#  207908
#  221753
#  230280
#  245076
#  256987
#  267872
#  278885
#  292273
#
# Disc length: 4041 seconds
#
# Revision: 0
# Processed by: cddbd v1.5.1PL2 Copyright (c) Steve Scherf et al.
# Submitted via: Collectorz.com_Music_Collector 6.10
#
DISCID=650fc71a
DTITLE=Shirley Gunter - Oop Shoop: The Flair And Modern Recordings 1953-1957
DYEAR=2006
DGENRE=Girl Group - Oldies - R&B - Rock and Roll
TTITLE0=Shirley Gunter and The Queens - Oop Shoop
TTITLE1=Strange Romance
TTITLE2=Found Some Good Lovin'
TTITLE3=Send Him Back
TTITLE4=Shirley Gunter and The Queens - It's You
TTITLE5=In My Heart (previously unissued)
TTITLE6=Shirley Gunter and The Queens - Baby, I Love You So
TTITLE7=Shirley Gunter and The Queens - What Difference Does It Make
TTITLE8=Shirley Gunter and The Flairs - I Just Got Rid Of A Heartache
TTITLE9=Shirley Gunter and The Flairs - Ipsie Opsie Ooh
TTITLE10=Since I Fell For You
TTITLE11=Shirley Gunter and The Flairs - I Want You
TTITLE12=Shirley Gunter and The Flairs - How Can I Tell You
TTITLE13=Shirley Gunter and The Queens - The Way I Like It
TTITLE14=I've Been Searching
TTITLE15=Shirley Gunter and The Flairs - Fortune In Love
TTITLE16=I'm Sorry
TTITLE17=Shirley Gunter and The Queens - Gimme, Gimme, Gimme
TTITLE18=Shirley Gunter and The Flairs - Headin' Home
TTITLE19=Come On
TTITLE20=Please Tell Me
TTITLE21=Shirley Gunter and The Queens - You're Mine
TTITLE22=Shirley Gunter and The Queens - Why
TTITLE23=Shirley Gunter and The Flairs - Let's Get Married (demo)
TTITLE24=Shirley Gunter and The Flairs - How Can I Tell You (demo)
TTITLE25=Shirley Gunter and The Flairs - Ipsy Opsie Ooh (demo)
EXTD=
EXTT0=
EXTT1=
EXTT2=
EXTT3=
EXTT4=
EXTT5=
EXTT6=
EXTT7=
EXTT8=
EXTT9=
EXTT10=
EXTT11=
EXTT12=
EXTT13=
EXTT14=
EXTT15=
EXTT16=
EXTT17=
EXTT18=
EXTT19=
EXTT20=
EXTT21=
EXTT22=
EXTT23=
EXTT24=
EXTT25=
PLAYORDER=
